<svg viewBox="0 0 474 117" xmlns="http://www.w3.org/2000/svg" xml:space="preserve" fill-rule="evenodd" clip-rule="evenodd" stroke-linejoin="round" stroke-miterlimit="2"><path d="M0 0v116.93h171.93l19.41-58.42L171.93 0H0Z" fill="#0095d4" fill-rule="nonzero"/><path d="M98.57 57.36v-.15a17 17 0 0 0-5.27-11.08 16.6 16.6 0 0 0-27.56 8.28h2.35A14.54 14.54 0 0 1 81.92 43.9a14.3 14.3 0 0 1 9.76 3.85 14.68 14.68 0 0 1 4.6 9.43c0 .47.06.91.06 1.33v1.15h5.19v.18a19.82 19.82 0 0 1-19.61 18.54h-1.13v5.27h-.17a25.1 25.1 0 0 1-23.49-25.14c0-6 2.12-11.8 6-16.38 3.77-4.45 9-7.43 14.74-8.4V31.4a27 27 0 0 0-16.33 9.07c-4.3 5-6.68 11.4-6.68 18a27.34 27.34 0 0 0 25.77 27.4h2.43v-5.22h.15a22.08 22.08 0 0 0 20.55-20.82v-2.46l-5.19-.01ZM83.21 31.12h-2.42v5.27h-.16a22.08 22.08 0 0 0-20.54 20.82v2.45h5.19v.15c.31 4.23 2.2 8.19 5.28 11.09a16.6 16.6 0 0 0 27.55-8.28h-2.35a14.53 14.53 0 0 1-13.84 10.51 14.3 14.3 0 0 1-9.75-3.85 14.66 14.66 0 0 1-4.61-9.44c0-.44-.06-.89-.06-1.33v-1.15h-5.2v-.17a19.86 19.86 0 0 1 18.25-18.5H83v-5.28h.17a25.1 25.1 0 0 1 23.49 25.09c0 6-2.12 11.81-6 16.39A24.72 24.72 0 0 1 86 83.3v2.33a27 27 0 0 0 16.34-9.08c4.3-5 6.67-11.4 6.68-18a27.35 27.35 0 0 0-25.81-27.43ZM77.87 80.3V78a19.71 19.71 0 0 1-15.13-15.38h-2.31A22.11 22.11 0 0 0 77.87 80.3Zm23.24-25.89h2.31A22.1 22.1 0 0 0 86 36.73v2.34a19.71 19.71 0 0 1 15.14 15.34h-.03Z" fill="#fff" fill-rule="nonzero"/><path d="M44.79 42.47h-2.31v42.8h2.31v-42.8Zm-7.58 18.72v21.73h-2.98v-5.34h-2.32v7.67h7.62V61.19h-2.32Zm0-3h2.32V37.14h-7.64v37.5h2.36V39.49h2.96v18.7Zm5.24-18.7h2.31V31.8H31.93v2.35h10.52v5.34Zm98.42 8.29h-2.34v37.49h2.34V47.78Zm-7.62 35.13h-2.9v-5.32h-2.32v7.68h7.56l.01-45.78h15.81v-2.34h-18.15l-.01 45.76Zm-5.23-8.27h2.3V42.47H112.2v2.36h15.81l.01 29.81Zm10.55-29.8h18.11v-7.69h-2.31v5.32h-15.8v2.37ZM114.51 31.8h-2.31v7.69h18.13v-2.34h-15.82V31.8Zm42.18 0h-39.22v2.35h39.22V31.8Z" fill="#fff"/><path d="M307.64 90.06c-.9 0-1.8-.12-2.67-.35a9.5 9.5 0 0 1-2.4-1l.83-1.49c.69.38 1.41.68 2.16.9a7.2 7.2 0 0 0 2 .28 4 4 0 0 0 2.79-.87 3.34 3.34 0 0 0 .95-2.59v-1.78a6.42 6.42 0 0 1-9.7-1.77 7 7 0 0 1 0-6.74 6.57 6.57 0 0 1 7.87-2.88c.7.27 1.35.65 1.92 1.14v-1.29h1.88V85a4.94 4.94 0 0 1-1.44 3.81 5.92 5.92 0 0 1-4.13 1.33l-.06-.08Zm124.75-5.24a3.79 3.79 0 0 1-2.59-.8 3 3 0 0 1-.9-2.33v-8.44h-2.79v-1.63h2.79v-3.28l1.88-.49v3.77h3.9v1.63h-3.9v8a2 2 0 0 0 .47 1.49c.43.34.98.5 1.52.45a5.58 5.58 0 0 0 1.92-.34v1.68c-.36.13-.73.22-1.1.26a9.2 9.2 0 0 1-1.17.08l-.03-.05Zm-157.82 0A3.78 3.78 0 0 1 272 84a2.94 2.94 0 0 1-.91-2.33v-8.42h-2.79v-1.63h2.79v-3.28l1.89-.49v3.77h3.9v1.63H273v8a2 2 0 0 0 .46 1.49c.43.34.98.5 1.53.45a5.5 5.5 0 0 0 1.92-.34v1.68a4.9 4.9 0 0 1-1.1.26 9.2 9.2 0 0 1-1.17.08l-.07-.05Zm53.66.02c-.86.02-1.7-.15-2.49-.49a3.71 3.71 0 0 1-.95-6.35 6.06 6.06 0 0 1 3.77-1.06 8.07 8.07 0 0 1 3.79.88v-1.71a3 3 0 0 0-.87-2.33 3.7 3.7 0 0 0-2.56-.79c-.65 0-1.3.1-1.93.27-.74.22-1.45.5-2.13.86l-.72-1.47a14.2 14.2 0 0 1 2.58-1 9.6 9.6 0 0 1 2.38-.31c1.36-.09 2.7.32 3.78 1.16a4.2 4.2 0 0 1 1.33 3.33v8.71h-1.86v-1.25a6 6 0 0 1-4.18 1.5l.06.05Zm-68.6 0a5.92 5.92 0 0 1-2.5-.49 3.72 3.72 0 0 1-.93-6.35 6.07 6.07 0 0 1 3.8-1.06 8.09 8.09 0 0 1 3.8.88v-1.71a2.94 2.94 0 0 0-.88-2.33 3.66 3.66 0 0 0-2.55-.79c-.65 0-1.3.1-1.93.27-.74.22-1.45.5-2.13.86l-.72-1.47a14.2 14.2 0 0 1 2.58-1 9.2 9.2 0 0 1 2.38-.31 5.6 5.6 0 0 1 3.78 1.16 4.2 4.2 0 0 1 1.33 3.33v8.71h-1.86v-1.25a6 6 0 0 1-4.18 1.5l.01.05Zm-39.33 0a9.33 9.33 0 0 1-6.67-2.71 9.39 9.39 0 0 1 0-13.28 9.31 9.31 0 0 1 6.66-2.7 10 10 0 0 1 5.15 1.35 9 9 0 0 1 2 1.61l-1.32 1.4a7.14 7.14 0 0 0-2.61-1.87 8.15 8.15 0 0 0-6.13-.07 7.23 7.23 0 0 0-3.93 3.99c-.73 1.9-.73 4 0 5.9a7.34 7.34 0 0 0 3.93 3.98 8 8 0 0 0 6.14-.09 7.27 7.27 0 0 0 2.55-1.82l1.29 1.34a9.63 9.63 0 0 1-7.02 2.97h-.04Zm196.7-.02a5.3 5.3 0 0 1-2.61-.63 4.6 4.6 0 0 1-1.77-1.76c-.43-.8-.65-1.7-.63-2.62v-8.19h1.89v7.8c-.05 1 .3 1.99 1 2.72a3.5 3.5 0 0 0 2.63 1 4 4 0 0 0 3.57-2v-9.5H423v12.92h-1.9v-1.5a5.12 5.12 0 0 1-4.1 1.76Zm25.72 0a5.3 5.3 0 0 1-2.61-.63 4.54 4.54 0 0 1-1.77-1.76c-.43-.8-.65-1.7-.63-2.62v-8.19h1.88v7.8a3.7 3.7 0 0 0 1 2.72 3.5 3.5 0 0 0 2.64 1c.73.01 1.45-.17 2.08-.53a4.07 4.07 0 0 0 1.48-1.49v-9.5h1.91v12.94h-1.91v-1.5a5.1 5.1 0 0 1-4 1.76h-.07Zm-196.49-.07a6.59 6.59 0 0 1-5.77-3.3 6.84 6.84 0 0 1 2.26-9.19 6.06 6.06 0 0 1 8.54 2.41 7 7 0 0 1 .81 3.37v.59h-10.61a5.2 5.2 0 0 0 2.54 3.9 4.7 4.7 0 0 0 2.32.58c.68 0 1.36-.1 2-.31.6-.18 1.14-.48 1.61-.88l1.18 1.27a7.82 7.82 0 0 1-4.83 1.6l-.05-.04Zm120.11 0h-.04a6.65 6.65 0 0 1-6.62-6.62v-.09a6.7 6.7 0 0 1 3.15-5.78 6 6 0 0 1 3.22-.89c1.1-.01 2.19.3 3.12.89a6.9 6.9 0 0 1 3.01 5.78v.59h-10.62c.09.81.37 1.59.81 2.27a4.87 4.87 0 0 0 4.05 2.17c.68 0 1.35-.1 2-.31a4.32 4.32 0 0 0 1.6-.88l1.19 1.27a7.82 7.82 0 0 1-4.83 1.6h-.04Zm101.77 0a6.54 6.54 0 0 1-3.37-.89 6.89 6.89 0 0 1-2.44-9.19 6.49 6.49 0 0 1 2.3-2.41 6 6 0 0 1 3.22-.89c1.1-.01 2.19.3 3.12.89.92.6 1.68 1.43 2.19 2.41a7 7 0 0 1 .82 3.37v.59h-10.62c.09.81.37 1.59.81 2.27a4.78 4.78 0 0 0 4.05 2.17c.68 0 1.36-.1 2-.31a4.32 4.32 0 0 0 1.6-.88l1.19 1.27a7.87 7.87 0 0 1-4.83 1.6h-.04Zm-237.01-.19V71.62h1.9v1.83a4 4 0 0 1 4.83-1.93v1.75a4.53 4.53 0 0 0-.67-.18 5 5 0 0 0-.67 0 3.33 3.33 0 0 0-2.08.68 4.51 4.51 0 0 0-1.41 2v8.86l-1.9-.07Zm221.9 0V71.62h1.91v1.83c.37-.64.88-1.17 1.51-1.56a4 4 0 0 1 3.32-.37v1.75a4.09 4.09 0 0 0-.67-.18 5 5 0 0 0-.67 0 3.35 3.35 0 0 0-2.08.68 4.67 4.67 0 0 0-1.41 2v8.86l-1.91-.07Zm-75.01 0-3.64-12.94h1.88l2.79 10.33 3.23-10.33h1.71l3.2 10.33 2.82-10.33h1.8l-3.67 12.94h-1.83l-3.2-10.36-3.23 10.36h-1.86Zm-98.05-12.94h1.91v12.94h-1.91V71.62Zm6.2 12.94V71.62h1.91v1.52a5.1 5.1 0 0 1 4.08-1.78c.9-.02 1.8.2 2.6.63a4.55 4.55 0 0 1 1.75 1.76c.44.8.66 1.7.64 2.62v8.19h-1.89v-7.8c.05-1-.31-2-1-2.73a3.52 3.52 0 0 0-2.64-1 4 4 0 0 0-3.57 1.99v9.53l-1.88.01Zm58.92 0V71.62H347v1.52a5.07 5.07 0 0 1 4.08-1.78c.9-.02 1.8.2 2.59.63a4.58 4.58 0 0 1 1.76 1.76c.43.8.65 1.7.63 2.62v8.19h-1.88v-7.8c.05-1-.31-2-1-2.73a3.55 3.55 0 0 0-2.65-1A4 4 0 0 0 347 75v9.53l-1.94.03Zm58.19 0V73.25h-3.05v-1.63h3.05v-2.45a3.88 3.88 0 0 1 1-2.92 4.05 4.05 0 0 1 3-1 4.98 4.98 0 0 1 1.73.23v1.71a4.87 4.87 0 0 0-1.6-.26 2.31 2.31 0 0 0-1.69.55c-.4.49-.6 1.12-.55 1.75v2.4H409v1.63h-3.84v11.3h-1.91Zm-78.01-3.72c0 .7.34 1.37.92 1.77.7.48 1.53.72 2.37.68.72 0 1.43-.11 2.11-.36a4.85 4.85 0 0 0 1.73-1.13v-2.43a5.6 5.6 0 0 0-1.7-.79 7.93 7.93 0 0 0-2-.25 4 4 0 0 0-2.47.69c-.59.42-.94 1.1-.92 1.82h-.04Zm-68.6 0c0 .7.34 1.37.92 1.77.69.48 1.52.72 2.36.68.72 0 1.44-.11 2.12-.36a4.85 4.85 0 0 0 1.73-1.13v-2.43a5.6 5.6 0 0 0-1.7-.79 8.02 8.02 0 0 0-2-.25 4 4 0 0 0-2.47.69c-.59.42-.94 1.1-.92 1.82h-.04ZM307.37 83a5.5 5.5 0 0 0 2.28-.46 4.4 4.4 0 0 0 1.67-1.32v-6.37c-.45-.56-1.03-1-1.69-1.29a5.51 5.51 0 0 0-2.26-.47 4.57 4.57 0 0 0-4.11 2.42 5.34 5.34 0 0 0 0 5c.4.73.99 1.35 1.7 1.78.72.44 1.55.67 2.39.66l.02.05Zm-65.86-5.85h8.65a4.87 4.87 0 0 0-2.27-3.53 4.07 4.07 0 0 0-4-.01 4.4 4.4 0 0 0-1.58 1.39c-.43.63-.7 1.35-.8 2.11v.04Zm221.87 0H472a4.75 4.75 0 0 0-2.27-3.53 4.07 4.07 0 0 0-4-.01 4.5 4.5 0 0 0-2.35 3.5v.04Zm-101.77 0h8.66a4.88 4.88 0 0 0-2.27-3.53 4.07 4.07 0 0 0-4-.01 4.5 4.5 0 0 0-2.39 3.5v.04Zm-80.67-8.01c-.34 0-.67-.14-.91-.39a1.3 1.3 0 0 1-.38-.93c0-.34.14-.66.38-.89.24-.24.57-.38.91-.37a1.28 1.28 0 0 1 .91 2.19c-.23.25-.56.4-.91.39Z" fill="#0095d4" fill-rule="nonzero"/><path d="M320.8 43.52c-.05-2.05.4-4.09 1.32-5.93a9.12 9.12 0 0 1 3.88-3.91 13.22 13.22 0 0 1 6.36-1.39c.93 0 1.85.07 2.76.24.69.13 1.36.34 2 .63V37h-.3a6.98 6.98 0 0 0-1.91-.71c-.78-.18-1.58-.26-2.38-.26-1.4-.05-2.8.25-4.05.88a5.75 5.75 0 0 0-2.47 2.55 8.93 8.93 0 0 0-.85 4.09 8.93 8.93 0 0 0 .85 4.09 5.75 5.75 0 0 0 2.47 2.55c1.26.63 2.65.93 4.05.88.8 0 1.6-.08 2.38-.26a6.98 6.98 0 0 0 1.91-.71h.3v3.81c-.64.29-1.31.5-2 .63-.91.17-1.83.25-2.76.24-2.2.06-4.39-.41-6.36-1.39a9 9 0 0 1-3.89-3.88 12.74 12.74 0 0 1-1.32-6l.01.01Zm86.26 7.31v-7.49h4v10.2c-.87.4-1.78.7-2.72.88-1.14.23-2.3.34-3.47.33-2.18.08-4.35-.4-6.29-1.4a9.08 9.08 0 0 1-3.78-3.91 13 13 0 0 1-1.25-5.86h.08a12.1 12.1 0 0 1 1.37-5.92 9.62 9.62 0 0 1 4-3.95c2.02-1 4.25-1.5 6.5-1.42.99-.01 1.98.07 2.95.24.72.12 1.43.33 2.09.63V37h-.27a11.44 11.44 0 0 0-4.67-.97 7.85 7.85 0 0 0-5.6 1.87c-1.33 1.27-2 3.18-2 5.71a9.26 9.26 0 0 0 .84 4.18 5.69 5.69 0 0 0 2.42 2.52c1.14.6 2.42.88 3.71.85a6.58 6.58 0 0 0 2.09-.32Zm-196.13-7.31a12.7 12.7 0 0 1 1.31-5.93 9.12 9.12 0 0 1 3.89-3.91 13.22 13.22 0 0 1 6.36-1.39c.93 0 1.85.07 2.76.24a8.5 8.5 0 0 1 2 .63V37H227a6.9 6.9 0 0 0-1.9-.71c-.79-.19-1.6-.28-2.4-.29a8.36 8.36 0 0 0-4 .88 5.73 5.73 0 0 0-2.48 2.55 9.06 9.06 0 0 0-.85 4.09 9.06 9.06 0 0 0 .85 4.09 5.73 5.73 0 0 0 2.48 2.55c1.24.62 2.61.92 4 .88.8 0 1.6-.08 2.39-.26a6.9 6.9 0 0 0 1.9-.71h.3v3.81c-.64.3-1.31.5-2 .63-.91.17-1.83.25-2.76.24-2.2.07-4.38-.4-6.36-1.36a9 9 0 0 1-3.89-3.88 12.72 12.72 0 0 1-1.31-6l-.04.01Zm19.66 0a12.9 12.9 0 0 1 1.27-5.86 9.36 9.36 0 0 1 3.65-3.95c3.6-1.9 7.91-1.9 11.51 0a9.3 9.3 0 0 1 3.65 3.95 12.9 12.9 0 0 1 1.27 5.86c.04 2.03-.4 4.03-1.27 5.86a9.3 9.3 0 0 1-3.67 3.95c-3.6 1.9-7.91 1.9-11.51 0a9.39 9.39 0 0 1-3.65-3.94 12.86 12.86 0 0 1-1.27-5.87h.02Zm202.86 0a13 13 0 0 1 1.27-5.86 9.38 9.38 0 0 1 3.66-3.95c3.6-1.9 7.9-1.9 11.5 0a9.3 9.3 0 0 1 3.65 3.95 12.9 12.9 0 0 1 1.27 5.86c.04 2.03-.4 4.03-1.27 5.86a9.3 9.3 0 0 1-3.65 3.95c-3.6 1.9-7.9 1.9-11.5 0a9.41 9.41 0 0 1-3.66-3.94 13 13 0 0 1-1.27-5.87Zm-140.16-.65V32.65h4.29v21.74h-4.29v-5.74l-9.08-9.4V54.4h-4.29V32.65h3.47l9.9 10.22Zm-23.4-.01V32.65h4.29v21.74h-4.29v-5.74l-9.08-9.4V54.4h-4.29V32.65H260l9.89 10.2Zm95.72-10.21h-4.29v21.74h4.29V32.65Zm63.23 0h-4.29v21.74h4.29V32.65ZM303.32 54.39V32.65h14.16v3.74h-9.87v5.08h8.27v3.59h-8.27v5.59h10.17v3.74h-14.46ZM456.4 32.65v3.74h6.61v18h4.32v-18h6.62v-3.74H456.4Zm-71.69 10.21.01-10.21H389v21.74h-4.29v-5.74l-9.08-9.4v15.14h-4.28V32.65h3.47l9.9 10.21Zm-44.55-10.21h17.54v3.75h-6.61v17.99h-4.32V36.4h-6.61v-3.75Zm66.9 18.19c.3-.11.57-.25.84-.41l-.84 2.18v-1.77ZM235 43.52a9.97 9.97 0 0 0 .74 4 5.71 5.71 0 0 0 2.13 2.59 6.8 6.8 0 0 0 6.79 0 5.71 5.71 0 0 0 2.13-2.59c.52-1.27.77-2.63.74-4a9.97 9.97 0 0 0-.74-4 5.71 5.71 0 0 0-2.13-2.59 6.8 6.8 0 0 0-6.79 0 5.71 5.71 0 0 0-2.13 2.59 10.04 10.04 0 0 0-.74 4Zm202.86 0a9.97 9.97 0 0 0 .74 4 5.83 5.83 0 0 0 2.13 2.59 6.82 6.82 0 0 0 6.8 0 5.76 5.76 0 0 0 2.12-2.59 9.9 9.9 0 0 0 .74-4 9.9 9.9 0 0 0-.74-4 5.76 5.76 0 0 0-2.12-2.59 6.82 6.82 0 0 0-6.8 0 5.83 5.83 0 0 0-2.13 2.59 10.04 10.04 0 0 0-.74 4Z" fill="#003e75" fill-rule="nonzero"/></svg>