<svg xmlns="http://www.w3.org/2000/svg" width="193.833" height="193.833" viewBox="0 0 193.833 193.833">
  <g id="hevo_logo" transform="translate(-0.1 -0.1)">
    <path id="Path_538" data-name="Path 538" d="M193.933,178.73a15.139,15.139,0,0,1-15.2,15.2H15.3A15.139,15.139,0,0,1,.1,178.73V15.3A15.139,15.139,0,0,1,15.3.1H178.519a15.139,15.139,0,0,1,15.2,15.2Z" transform="translate(0 0)" fill="#19304d"/>
    <path id="Path_539" data-name="Path 539" d="M7.9,67.9V99.572h8.868V89.015a1.665,1.665,0,0,1,1.689-1.689H35.983a1.665,1.665,0,0,1,1.689,1.689V99.572H46.54V67.9H37.883V78.457a1.665,1.665,0,0,1-1.689,1.689H18.668a1.665,1.665,0,0,1-1.689-1.689V67.9Z" transform="translate(8.669 75.357)" fill="#fff"/>
    <path id="Path_540" data-name="Path 540" d="M37.568,78.68a1.665,1.665,0,0,0,1.689,1.689H58.683v6.968H39.257a1.689,1.689,0,0,0,0,3.378h22.8v8.868H37.568A8.922,8.922,0,0,1,28.7,90.715V76.568A8.922,8.922,0,0,1,37.568,67.7h24.7v8.868h-22.8a2.245,2.245,0,0,0-1.9,2.111" transform="translate(31.788 75.135)" fill="#fff"/>
    <path id="Path_541" data-name="Path 541" d="M74.268,89.126a1.665,1.665,0,0,0,1.689,1.689H93.482a1.665,1.665,0,0,0,1.689-1.689V78.568a1.665,1.665,0,0,0-1.689-1.689H75.957a1.665,1.665,0,0,0-1.689,1.689ZM65.4,76.668A8.922,8.922,0,0,1,74.268,67.8H95.383a8.922,8.922,0,0,1,8.868,8.868V90.815a8.922,8.922,0,0,1-8.868,8.868H74.268A8.922,8.922,0,0,1,65.4,90.815Z" transform="translate(72.579 75.246)" fill="#fff"/>
    <path id="Path_542" data-name="Path 542" d="M85.051,67.8,76.183,92.082h0a10.177,10.177,0,0,1-4.012,5.279,11.518,11.518,0,0,1-6.546,2.111,12.058,12.058,0,0,1-6.546-2.111,11.094,11.094,0,0,1-4.012-5.279h0L46.2,67.8h9.5l7.812,21.326a3.707,3.707,0,0,0,.845,1.056,2.111,2.111,0,0,0,2.534,0,2.108,2.108,0,0,0,.845-1.056L75.549,67.8Z" transform="translate(51.239 75.246)" fill="#fff"/>
  </g>
</svg>
