<?xml version="1.0" encoding="UTF-8"?>
<svg width="118px" height="55px" viewBox="0 0 118 55" version="1.1" xmlns="http://www.w3.org/2000/svg" xmlns:xlink="http://www.w3.org/1999/xlink">
    <!-- Generator: Sketch 55.2 (78181) - https://sketchapp.com -->
    <title>Group Copy</title>
    <desc>Created with Sketch.</desc>
    <g id="Intranet." stroke="none" stroke-width="1" fill="none" fill-rule="evenodd">
        <g id="Intranet-V3.0" transform="translate(-24.000000, -24.000000)">
            <g id="Group-Copy" transform="translate(24.000000, 24.000000)">
                <path d="M101.293809,33.8459496 C110.519694,33.8459496 118,26.2706382 118,16.9243024 C118,7.57796659 110.519694,0 101.293809,0 L82.5013105,0 C81.3454539,0 80.4123814,0.947909626 80.4123814,2.1162016 C80.4123814,3.28449358 81.3454539,4.229748 82.5013105,4.229748 L101.293809,4.229748 C108.213223,4.229748 113.822142,9.91455055 113.822142,16.9243024 C113.822142,23.9340543 108.213223,29.6162016 101.293809,29.6162016 L90.8517849,29.6162016 C87.392078,29.6162016 84.5876186,32.4572753 84.5876186,35.9621512 L84.5876186,48.6540504 C84.5876186,49.8223424 83.6519251,50.770252 82.4986895,50.770252 C81.3454539,50.770252 80.4123814,49.8223424 80.4123814,48.6540504 L80.4123814,35.9621512 C80.4123814,32.4572753 77.605301,29.6162016 74.1482151,29.6162016 L69.970357,29.6162016 C66.5106501,29.6162016 63.7088117,32.4572753 63.7088117,35.9621512 L63.7088117,40.1918992 C63.7088117,41.3601912 62.7731182,42.3081008 61.6198826,42.3081008 C60.466647,42.3081008 59.5309535,41.3601912 59.5309535,40.1918992 L59.5309535,35.9621512 C59.5309535,32.4572753 56.7264941,29.6162016 53.2667873,29.6162016 L49.0915501,29.6162016 C47.9356935,29.6162016 47,30.561456 47,31.729748 C47,32.89804 47.9356935,33.8459496 49.0915501,33.8459496 L53.2667873,33.8459496 C54.4200229,33.8459496 55.3530954,34.791204 55.3530954,35.9621512 L55.3530954,40.1918992 C55.3530954,43.6967751 58.1601757,46.5378488 61.6198826,46.5378488 C65.0795895,46.5378488 67.8840489,43.6967751 67.8840489,40.1918992 L67.8840489,35.9621512 C67.8840489,34.791204 68.8171213,33.8459496 69.970357,33.8459496 L74.1482151,33.8459496 C75.2988298,33.8459496 76.2345232,34.791204 76.2345232,35.9621512 L76.2345232,48.6540504 C76.2345232,52.1589263 79.0416036,55 82.4986895,55 C85.9610174,55 88.7654768,52.1589263 88.7654768,48.6540504 L88.7654768,35.9621512 C88.7654768,34.791204 89.6985492,33.8459496 90.8517849,33.8459496 L101.293809,33.8459496 Z" id="Fill-1904" fill="#1A1919"></path>
                <path d="M23.2239888,15.5117312 L12.2426778,0.844356474 L12.2426778,0.847011683 C11.8584379,0.334556339 11.246304,0 10.5546722,0 L6.3306834,0 C2.83542538,0 0,2.84107367 0,6.34329439 L0,48.6540504 C0,52.1589263 2.83542538,55 6.3306834,55 C9.83124128,55 12.6666667,52.1589263 12.6666667,48.6540504 L12.6666667,27.5 C12.6666667,26.331708 11.7232915,25.3837984 10.5546722,25.3837984 C9.39135286,25.3837984 8.44532775,26.331708 8.44532775,27.5 L8.44532775,48.6540504 C8.44532775,49.8223424 7.49930265,50.7675968 6.3306834,50.7675968 C5.16736402,50.7675968 4.22133891,49.8223424 4.22133891,48.6540504 L4.22133891,6.34329439 C4.22133891,5.17765762 5.16736402,4.23240321 6.3306834,4.23240321 L9.5,4.23240321 L21.5333333,20.3070387 L21.5359833,20.3070387 C21.9202232,20.8194941 22.532357,21.1540504 23.2239888,21.1540504 C23.9129707,21.1540504 24.5251046,20.8194941 24.9093445,20.3070387 L24.9119944,20.3070387 L36.9453278,4.23240321 L40.1119944,4.23240321 C41.2779637,4.23240321 42.2239888,5.17765762 42.2239888,6.34329439 L42.2239888,19.0378488 C42.2239888,22.5427247 45.0594142,25.3837984 48.5573222,25.3837984 L52.7786611,25.3837984 C56.276569,25.3837984 59.1119944,22.5427247 59.1119944,19.0378488 L59.1119944,14.8081008 C59.1119944,13.6398088 60.0580195,12.6918992 61.2239888,12.6918992 C62.3926081,12.6918992 63.3359833,13.6398088 63.3359833,14.8081008 L63.3359833,19.0378488 C63.3359833,22.5427247 66.1714086,25.3837984 69.6693166,25.3837984 L73.8906555,25.3837984 C75.0566248,25.3837984 76,24.4358888 76,23.270252 C76,22.0993048 75.0566248,21.1540504 73.8906555,21.1540504 L69.6693166,21.1540504 C68.5006974,21.1540504 67.5573222,20.2061408 67.5573222,19.0378488 L67.5573222,14.8081008 C67.5573222,11.3032249 64.7218968,8.4621512 61.2239888,8.4621512 C57.7260809,8.4621512 54.8906555,11.3032249 54.8906555,14.8081008 L54.8906555,19.0378488 C54.8906555,20.2061408 53.9446304,21.1540504 52.7786611,21.1540504 L48.5573222,21.1540504 C47.3913529,21.1540504 46.4426778,20.2061408 46.4426778,19.0378488 L46.4426778,6.34329439 C46.4426778,2.84107367 43.6099024,0 40.1119944,0 L35.8906555,0 C35.1990237,0 34.5868898,0.334556339 34.2026499,0.847011683 L34.2026499,0.844356474 L23.2239888,15.5117312 Z" id="Fill-1908" fill="#FFFFFE"></path>
            </g>
        </g>
    </g>
</svg>